<svg width="417" height="347" viewBox="0 0 417 347" fill="none" xmlns="http://www.w3.org/2000/svg">
<path d="M31.6769 47.92V130H2.71688V47.92H31.6769ZM0.796875 16.4C0.796875 14.16 1.22354 12.08 2.07688 10.16C2.93021 8.13333 4.10354 6.37333 5.59688 4.87999C7.09021 3.38666 8.79688 2.21333 10.7169 1.36C12.7435 0.506662 14.8769 0.0799942 17.1169 0.0799942C19.3569 0.0799942 21.4369 0.506662 23.3569 1.36C25.3835 2.21333 27.1435 3.38666 28.6369 4.87999C30.1302 6.37333 31.3035 8.13333 32.1569 10.16C33.0102 12.08 33.4369 14.16 33.4369 16.4C33.4369 18.64 33.0102 20.7733 32.1569 22.8C31.3035 24.72 30.1302 26.4267 28.6369 27.92C27.1435 29.4133 25.3835 30.5867 23.3569 31.44C21.4369 32.2933 19.3569 32.72 17.1169 32.72C14.8769 32.72 12.7435 32.2933 10.7169 31.44C8.79688 30.5867 7.09021 29.4133 5.59688 27.92C4.10354 26.4267 2.93021 24.72 2.07688 22.8C1.22354 20.7733 0.796875 18.64 0.796875 16.4ZM414.333 47.92V130H385.373V47.92H414.333ZM383.453 16.4C383.453 14.16 383.88 12.08 384.733 10.16C385.586 8.13333 386.76 6.37333 388.253 4.87999C389.746 3.38666 391.453 2.21333 393.373 1.36C395.4 0.506662 397.533 0.0799942 399.773 0.0799942C402.013 0.0799942 404.093 0.506662 406.013 1.36C408.04 2.21333 409.8 3.38666 411.293 4.87999C412.786 6.37333 413.96 8.13333 414.813 10.16C415.666 12.08 416.093 14.16 416.093 16.4C416.093 18.64 415.666 20.7733 414.813 22.8C413.96 24.72 412.786 26.4267 411.293 27.92C409.8 29.4133 408.04 30.5867 406.013 31.44C404.093 32.2933 402.013 32.72 399.773 32.72C397.533 32.72 395.4 32.2933 393.373 31.44C391.453 30.5867 389.746 29.4133 388.253 27.92C386.76 26.4267 385.586 24.72 384.733 22.8C383.88 20.7733 383.453 18.64 383.453 16.4Z" fill="#93C191"/>
<path d="M81.2269 118.8L41.5469 47.92H75.1469L97.0669 90L118.347 47.92H151.627L85.7069 170.96H53.2269L81.2269 118.8Z" fill="#B4D8FA"/>
<path d="M188.503 88.72C188.503 91.3867 188.983 93.8933 189.943 96.24C190.903 98.48 192.183 100.453 193.783 102.16C195.49 103.867 197.463 105.2 199.703 106.16C202.05 107.12 204.556 107.6 207.223 107.6C209.783 107.6 212.183 107.12 214.423 106.16C216.77 105.2 218.743 103.867 220.343 102.16C222.05 100.453 223.383 98.48 224.343 96.24C225.41 94 225.943 91.6 225.943 89.04C225.943 86.48 225.41 84.08 224.343 81.84C223.383 79.4933 222.05 77.4667 220.343 75.76C218.743 74.0533 216.77 72.72 214.423 71.76C212.183 70.8 209.783 70.32 207.223 70.32C204.556 70.32 202.05 70.8 199.703 71.76C197.463 72.72 195.49 74.0533 193.783 75.76C192.183 77.4667 190.903 79.44 189.943 81.68C188.983 83.8133 188.503 86.16 188.503 88.72ZM224.983 47.92H254.103V130H224.983V120.88C218.796 128.667 210.423 132.56 199.863 132.56C193.89 132.56 188.396 131.493 183.383 129.36C178.37 127.12 173.996 124.027 170.263 120.08C166.53 116.133 163.596 111.493 161.463 106.16C159.436 100.827 158.423 95.0133 158.423 88.72C158.423 82.8533 159.436 77.3067 161.463 72.08C163.49 66.7467 166.316 62.1067 169.943 58.16C173.57 54.2133 177.89 51.12 182.903 48.88C187.916 46.5333 193.463 45.36 199.543 45.36C209.783 45.36 218.263 48.9333 224.983 56.08V47.92ZM300.691 88.56C300.691 91.2267 301.171 93.7333 302.131 96.08C303.091 98.32 304.371 100.293 305.971 102C307.677 103.707 309.651 105.04 311.891 106C314.237 106.96 316.744 107.44 319.411 107.44C321.971 107.44 324.371 106.96 326.611 106C328.957 105.04 330.931 103.707 332.531 102C334.237 100.293 335.571 98.32 336.531 96.08C337.597 93.7333 338.131 91.28 338.131 88.72C338.131 86.0533 337.597 83.6 336.531 81.36C335.571 79.12 334.237 77.1467 332.531 75.44C330.824 73.7333 328.797 72.4 326.451 71.44C324.211 70.48 321.864 70 319.411 70C316.851 70 314.451 70.5333 312.211 71.6C309.971 72.56 307.997 73.8933 306.291 75.6C304.584 77.2 303.197 79.12 302.131 81.36C301.171 83.6 300.691 86 300.691 88.56ZM365.651 47.92V124.4C365.651 128.987 365.384 133.093 364.851 136.72C364.317 140.347 363.571 143.547 362.611 146.32C361.331 149.84 359.304 153.093 356.531 156.08C353.864 159.173 350.611 161.84 346.771 164.08C342.931 166.32 338.557 168.08 333.651 169.36C328.851 170.64 323.624 171.28 317.971 171.28C311.571 171.28 305.704 170.48 300.371 168.88C295.037 167.28 290.344 165.04 286.291 162.16C282.344 159.387 279.091 156.08 276.531 152.24C273.971 148.507 272.264 144.4 271.411 139.92H304.051C306.077 145.36 310.664 148.08 317.811 148.08C323.891 148.08 328.531 146.373 331.731 142.96C335.037 139.547 336.691 134.8 336.691 128.72V120.88C334.557 122.907 332.477 124.613 330.451 126C328.531 127.28 326.557 128.347 324.531 129.2C322.504 130.053 320.371 130.64 318.131 130.96C315.891 131.387 313.437 131.6 310.771 131.6C304.904 131.6 299.517 130.587 294.611 128.56C289.704 126.533 285.437 123.707 281.811 120.08C278.291 116.453 275.517 112.133 273.491 107.12C271.571 102 270.611 96.3467 270.611 90.16C270.611 83.8667 271.677 78.0533 273.811 72.72C275.944 67.28 278.824 62.5867 282.451 58.64C286.184 54.5867 290.557 51.44 295.571 49.2C300.691 46.8533 306.237 45.68 312.211 45.68C321.917 45.68 330.077 49.3067 336.691 56.56V47.92H365.651Z" fill="#B4D8FA"/>
<path d="M107.137 287.48C102.124 284.067 97.0569 282.36 91.9369 282.36C89.1635 282.36 86.5502 282.84 84.0969 283.8C81.7502 284.76 79.6702 286.147 77.8569 287.96C76.0435 289.667 74.6035 291.747 73.5369 294.2C72.5769 296.547 72.0969 299.213 72.0969 302.2C72.0969 305.08 72.5769 307.747 73.5369 310.2C74.6035 312.547 75.9902 314.627 77.6969 316.44C79.5102 318.147 81.6435 319.48 84.0969 320.44C86.5502 321.4 89.1635 321.88 91.9369 321.88C97.3769 321.88 102.444 320.013 107.137 316.28V340.92C99.9902 344.013 93.2169 345.56 86.8169 345.56C80.8435 345.56 75.1369 344.547 69.6969 342.52C64.3635 340.493 59.6169 337.613 55.4569 333.88C51.4035 330.04 48.1502 325.507 45.6969 320.28C43.2435 314.947 42.0169 309.027 42.0169 302.52C42.0169 296.013 43.1902 290.093 45.5369 284.76C47.8835 279.32 51.0835 274.68 55.1369 270.84C59.1902 266.893 63.9902 263.853 69.5369 261.72C75.1902 259.48 81.2169 258.36 87.6169 258.36C94.6569 258.36 101.164 259.853 107.137 262.84V287.48ZM152.614 210.2V343H123.654V210.2H152.614ZM201.364 260.92V307.16C201.364 317.293 206.271 322.36 216.084 322.36C225.898 322.36 230.804 317.293 230.804 307.16V260.92H259.764V312.76C259.764 323.853 256.084 332.173 248.724 337.72C241.471 343.267 230.591 346.04 216.084 346.04C201.578 346.04 190.644 343.267 183.284 337.72C176.031 332.173 172.404 323.853 172.404 312.76V260.92H201.364ZM344.876 302.2C344.876 299.64 344.396 297.24 343.436 295C342.476 292.653 341.142 290.627 339.436 288.92C337.729 287.213 335.756 285.88 333.516 284.92C331.276 283.853 328.822 283.32 326.156 283.32C323.596 283.32 321.196 283.8 318.956 284.76C316.716 285.72 314.742 287.053 313.036 288.76C311.436 290.467 310.102 292.493 309.036 294.84C308.076 297.08 307.596 299.48 307.596 302.04C307.596 304.6 308.076 307 309.036 309.24C309.996 311.48 311.329 313.453 313.036 315.16C314.742 316.76 316.716 318.093 318.956 319.16C321.302 320.12 323.756 320.6 326.316 320.6C328.876 320.6 331.276 320.12 333.516 319.16C335.756 318.2 337.676 316.867 339.276 315.16C340.982 313.453 342.316 311.48 343.276 309.24C344.342 307 344.876 304.653 344.876 302.2ZM308.396 210.2V269.08C315.222 261.933 323.756 258.36 333.996 258.36C340.076 258.36 345.622 259.533 350.636 261.88C355.756 264.12 360.076 267.213 363.596 271.16C367.222 275 370.049 279.587 372.076 284.92C374.102 290.147 375.116 295.747 375.116 301.72C375.116 307.8 374.049 313.507 371.916 318.84C369.889 324.173 367.009 328.813 363.276 332.76C359.542 336.707 355.116 339.853 349.996 342.2C344.982 344.44 339.542 345.56 333.676 345.56C323.009 345.56 314.582 341.667 308.396 333.88V343H279.436V210.2H308.396Z" fill="#232777"/>
</svg>
