<svg width="235" height="170" viewBox="0 0 235 170" fill="none" xmlns="http://www.w3.org/2000/svg">
<path d="M16.0234 1.68V62H0.343438V1.68H16.0234ZM234.695 1.68V62H219.015V1.68H234.695Z" fill="#93C191"/>
<path d="M43.1847 33.04L21.1847 1.68H39.9047L51.1047 18.16L62.2247 1.68H80.9447L58.8647 33.04V62H43.1847V33.04Z" fill="#B4D8FA"/>
<path d="M119.237 39.6L112.197 19.52L105.157 39.6H119.237ZM123.397 51.52H100.997L97.3972 62H80.6772L103.637 1.68H120.757L143.717 62H126.997L123.397 51.52ZM177.985 28.24H209.105C209.105 31.44 208.971 34.3467 208.705 36.96C208.438 39.5733 207.905 42 207.105 44.24C205.985 47.3867 204.465 50.1867 202.545 52.64C200.625 55.04 198.358 57.0667 195.745 58.72C193.185 60.32 190.358 61.5467 187.265 62.4C184.171 63.2533 180.918 63.68 177.505 63.68C172.811 63.68 168.518 62.9067 164.625 61.36C160.785 59.8133 157.478 57.6533 154.705 54.88C151.931 52.0533 149.771 48.6933 148.225 44.8C146.678 40.8533 145.905 36.5067 145.905 31.76C145.905 27.0667 146.651 22.7733 148.145 18.88C149.691 14.9333 151.851 11.5733 154.625 8.8C157.451 6.02667 160.838 3.86666 164.785 2.32C168.731 0.77333 173.131 -2.86102e-06 177.985 -2.86102e-06C184.278 -2.86102e-06 189.798 1.36 194.545 4.08C199.291 6.8 203.051 11.0133 205.825 16.72L190.945 22.88C189.558 19.5733 187.745 17.2 185.505 15.76C183.318 14.32 180.811 13.6 177.985 13.6C175.638 13.6 173.505 14.0533 171.585 14.96C169.665 15.8133 168.011 17.0667 166.625 18.72C165.291 20.32 164.225 22.2667 163.425 24.56C162.678 26.8533 162.305 29.4133 162.305 32.24C162.305 34.8 162.625 37.1733 163.265 39.36C163.958 41.5467 164.971 43.44 166.305 45.04C167.638 46.64 169.291 47.8933 171.265 48.8C173.238 49.6533 175.531 50.08 178.145 50.08C179.691 50.08 181.185 49.92 182.625 49.6C184.065 49.2267 185.345 48.6667 186.465 47.92C187.638 47.12 188.598 46.1067 189.345 44.88C190.091 43.6533 190.598 42.16 190.865 40.4H177.985V28.24Z" fill="#B4D8FA"/>
<path d="M59.5256 127.84C55.899 123.413 51.419 121.2 46.0856 121.2C43.739 121.2 41.5523 121.627 39.5256 122.48C37.5523 123.333 35.8456 124.507 34.4056 126C32.9656 127.44 31.819 129.173 30.9656 131.2C30.1656 133.227 29.7656 135.413 29.7656 137.76C29.7656 140.16 30.1656 142.373 30.9656 144.4C31.819 146.427 32.9656 148.187 34.4056 149.68C35.899 151.173 37.6323 152.347 39.6056 153.2C41.579 154.053 43.7123 154.48 46.0056 154.48C51.019 154.48 55.5256 152.347 59.5256 148.08V166.64L57.9256 167.2C55.5256 168.053 53.2856 168.667 51.2056 169.04C49.1256 169.467 47.0723 169.68 45.0456 169.68C40.8856 169.68 36.8856 168.907 33.0456 167.36C29.259 165.76 25.899 163.547 22.9656 160.72C20.0856 157.84 17.7656 154.453 16.0056 150.56C14.2456 146.613 13.3656 142.32 13.3656 137.68C13.3656 133.04 14.219 128.8 15.9256 124.96C17.6856 121.067 20.0056 117.733 22.8856 114.96C25.819 112.133 29.2056 109.947 33.0456 108.4C36.8856 106.8 40.9123 106 45.1256 106C47.5256 106 49.8723 106.267 52.1656 106.8C54.5123 107.28 56.9656 108.053 59.5256 109.12V127.84ZM85.125 107.68V154.72H103.925V168H69.445V107.68H85.125ZM126.609 107.68V140.48C126.609 142.24 126.663 144.053 126.769 145.92C126.929 147.733 127.329 149.387 127.969 150.88C128.663 152.373 129.729 153.6 131.169 154.56C132.609 155.467 134.636 155.92 137.249 155.92C139.863 155.92 141.863 155.467 143.249 154.56C144.689 153.6 145.756 152.373 146.449 150.88C147.143 149.387 147.543 147.733 147.649 145.92C147.809 144.053 147.889 142.24 147.889 140.48V107.68H163.489V142.64C163.489 152.027 161.329 158.88 157.009 163.2C152.743 167.52 146.156 169.68 137.249 169.68C128.343 169.68 121.729 167.52 117.409 163.2C113.089 158.88 110.929 152.027 110.929 142.64V107.68H126.609ZM191.844 155.84H195.284C199.23 155.84 202.057 155.333 203.764 154.32C205.47 153.307 206.324 151.68 206.324 149.44C206.324 147.2 205.47 145.573 203.764 144.56C202.057 143.547 199.23 143.04 195.284 143.04H191.844V155.84ZM191.844 131.36H194.724C199.63 131.36 202.084 129.413 202.084 125.52C202.084 121.627 199.63 119.68 194.724 119.68H191.844V131.36ZM176.164 107.68H199.524C205.07 107.68 209.284 109.013 212.164 111.68C215.044 114.347 216.484 118.187 216.484 123.2C216.484 126.24 215.924 128.773 214.804 130.8C213.737 132.773 212.084 134.453 209.844 135.84C212.084 136.267 213.977 136.933 215.524 137.84C217.124 138.693 218.404 139.76 219.364 141.04C220.377 142.32 221.097 143.76 221.524 145.36C221.95 146.96 222.164 148.667 222.164 150.48C222.164 153.307 221.657 155.813 220.644 158C219.684 160.187 218.297 162.027 216.484 163.52C214.724 165.013 212.564 166.133 210.004 166.88C207.444 167.627 204.564 168 201.364 168H176.164V107.68Z" fill="white"/>
</svg>
