<svg width="385" height="450" viewBox="0 0 385 450" fill="none" xmlns="http://www.w3.org/2000/svg">
<rect width="385" height="450" rx="25" fill="#F6F6F6"/>
<circle cx="262" cy="306" r="75" fill="#5AAFFF"/>
<path d="M203.379 282.883L217.143 288.278L217.914 286.312L204.15 280.916L203.379 282.883ZM202.227 288.67C201.416 290.74 202.691 293.01 205.7 294.19C208.724 295.375 211.217 294.583 212.029 292.512C212.841 290.441 211.55 288.166 208.526 286.98C205.517 285.801 203.039 286.599 202.227 288.67ZM204 289.365C204.397 288.352 205.759 288.078 207.785 288.872C209.826 289.672 210.639 290.798 210.242 291.811C209.844 292.824 208.483 293.098 206.442 292.298C204.416 291.504 203.603 290.378 204 289.365Z" fill="black"/>
<path d="M219.33 274.857C218.61 275.694 217.245 275.49 215.583 274.061C213.945 272.653 213.527 271.323 214.247 270.485C214.956 269.661 216.344 269.862 217.982 271.271C219.644 272.7 220.039 274.032 219.33 274.857ZM212.803 269.244C211.343 270.942 211.807 273.494 214.258 275.602C216.72 277.719 219.325 277.807 220.786 276.108C222.236 274.422 221.77 271.848 219.307 269.73C216.857 267.623 214.254 267.558 212.803 269.244ZM222.215 264.655L220.905 263.528L219.58 265.069L216.972 262.826L215.595 264.427L226.768 274.036L228.145 272.434L224.154 269.002L225.479 267.461L224.168 266.335L222.843 267.875L220.89 266.196L222.215 264.655Z" fill="black"/>
<path d="M227.575 256.001L228.515 257.393L232.586 254.644C234.16 257.519 234.098 260.342 231.994 263.945L233.84 264.706C236.761 259.682 235.961 255.782 233.435 252.043L227.575 256.001ZM234.445 249.507L242.693 261.719L244.456 260.528L236.209 248.316L234.445 249.507Z" fill="black"/>
<path d="M247.619 245.997L247.727 247.706L252.533 247.402C252.356 250.683 250.683 253.13 247.377 255.103L248.661 256.641C253.391 253.856 254.828 249.966 254.549 245.559L247.619 245.997ZM260.781 249.285L258.721 249.415L258.365 243.794L256.258 243.927L257.187 258.618L259.295 258.485L258.831 251.155L260.891 251.025L260.781 249.285Z" fill="black"/>
<path d="M287.449 256.607L289.227 257.746L293.387 251.252L291.608 250.113L290.668 251.582L289.253 250.676L288.355 252.077L289.77 252.983L289.235 253.818L287.82 252.912L286.932 254.3L288.346 255.206L287.449 256.607ZM284.696 248.593L285.855 249.336L284.043 252.165C283.644 251.928 283.258 251.7 282.867 251.45L284.696 248.593ZM286.998 253.811C286.608 253.618 286.214 253.403 285.806 253.18L287.566 250.431L288.55 251.061L289.439 249.674L282.891 245.48L282.002 246.868L282.985 247.498L281.139 250.381L279.845 249.552L279.114 251.079C281.149 252.382 283.789 254.016 286.286 255.16L286.998 253.811ZM279.949 258.112L280.415 257.385L286.829 261.492L288.925 258.218L280.747 252.98L279.884 254.327L286.311 258.444L285.879 259.117L279.466 255.01L277.343 258.324L285.859 263.778L286.713 262.444L279.949 258.112Z" fill="black"/>
<path d="M301.317 263.12L303.353 265.246L304.566 264.083L302.53 261.958L304.008 260.541L302.547 259.016L301.068 260.433L299.009 258.284L297.796 259.446L299.855 261.595L299.486 261.949C297.891 263.477 295.314 264.418 292.878 263.472L292.486 265.399C294.181 266.08 296.041 265.871 297.766 265.104C296.996 266.728 296.776 268.534 297.386 270.211L299.339 269.89C298.463 267.427 299.399 264.958 300.947 263.474L301.317 263.12ZM307.528 263.705L304.34 266.761L302.624 264.97L301.388 266.154L303.103 267.945L302.145 268.864L300.429 267.073L299.193 268.258L300.908 270.048L296.865 273.923L298.326 275.448L308.989 265.23L307.528 263.705Z" fill="black"/>
<path d="M316.237 280.419L317.748 283.056L319.261 282.189L315.157 275.026L313.644 275.893L315.171 278.558L314.463 278.964C312.283 280.213 309.341 280.516 307.158 278.927L306.297 280.804C307.836 281.913 309.827 282.137 311.819 281.752C310.604 283.204 309.935 284.933 310.148 286.784L312.164 286.957C311.828 284.31 313.446 282.018 315.529 280.824L316.237 280.419ZM321.159 282.669L308.373 289.996L309.423 291.828L322.209 284.502L321.159 282.669Z" fill="black"/>
<path d="M323.325 307.52L321.915 299.532L325.319 298.931L324.951 296.851L319.894 297.744L321.671 307.812L323.325 307.52ZM315.937 300.457L315.567 298.362L311.25 299.124L313.066 309.413L314.721 309.121L313.274 300.927L315.937 300.457ZM318.126 296.383L316.456 296.677L318.776 309.818L320.446 309.523L318.126 296.383Z" fill="black"/>
<path d="M309.012 338.871C310.268 339.928 311.421 340.519 312.418 341.03L313.458 341.563L318.113 332.478L316.618 331.712L312.926 338.917C312.093 338.472 311.182 337.969 310.146 337.115L309.012 338.871ZM307.729 334.043L308.692 332.163L308.307 331.966C306.969 331.28 306.259 329.262 307.413 326.168L305.61 326.107C304.808 328.411 304.86 330.379 305.626 331.796C304.035 331.988 302.407 333.095 301.006 335.092L302.108 336.52C303.953 333.762 306.006 333.16 307.344 333.846L307.729 334.043ZM310.263 334.676L312.683 335.916L313.647 334.037L311.226 332.796L313.473 328.411L311.978 327.644L305.922 339.463L307.417 340.229L310.263 334.676Z" fill="black"/>
<path d="M71.48 138.28V156.76H74.12V138.28H71.48ZM64.22 139.58C61.44 139.58 59.38 142.1 59.38 146.14C59.38 150.2 61.44 152.74 64.22 152.74C67 152.74 69.06 150.2 69.06 146.14C69.06 142.1 67 139.58 64.22 139.58ZM64.22 141.96C65.58 141.96 66.52 143.42 66.52 146.14C66.52 148.88 65.58 150.34 64.22 150.34C62.86 150.34 61.92 148.88 61.92 146.14C61.92 143.42 62.86 141.96 64.22 141.96ZM82.1984 150.34C80.8184 150.34 79.8984 148.88 79.8984 146.14C79.8984 143.44 80.8184 141.96 82.1984 141.96C83.5584 141.96 84.4984 143.44 84.4984 146.14C84.4984 148.88 83.5584 150.34 82.1984 150.34ZM82.1984 139.58C79.3984 139.58 77.3584 142.1 77.3584 146.14C77.3584 150.2 79.3984 152.74 82.1984 152.74C84.9784 152.74 87.0384 150.2 87.0384 146.14C87.0384 142.1 84.9784 139.58 82.1984 139.58ZM94.2184 144.76V142.6H91.6784V138.3H89.0384V156.72H91.6784V150.14H94.2184V147.98H91.6784V144.76H94.2184ZM96.6769 140.2V142.3H102.817C102.437 146.38 100.397 149.26 95.6969 151.52L97.0769 153.6C103.617 150.44 105.517 145.84 105.517 140.2H96.6769ZM108.337 138.28V156.7H110.997V138.28H108.337ZM114.895 140.18V142.32H120.915C120.435 146.4 118.155 149.32 113.875 151.52L115.355 153.54C121.475 150.44 123.575 145.7 123.575 140.18H114.895ZM131.055 145.32H128.475V138.28H125.835V156.68H128.475V147.5H131.055V145.32ZM152.011 147.96H154.651V138.32H152.011V140.5H149.911V142.58H152.011V143.82H149.911V145.88H152.011V147.96ZM143.711 141.38H145.431V145.58C144.851 145.6 144.291 145.62 143.711 145.62V141.38ZM149.651 145.32C149.111 145.38 148.551 145.42 147.971 145.46V141.38H149.431V139.32H139.711V141.38H141.171V145.66H139.251L139.511 147.76C142.531 147.76 146.411 147.7 149.811 147.22L149.651 145.32ZM145.131 154.6V153.52H154.651V148.66H142.511V150.66H152.051V151.66H142.531V156.58H155.171V154.6H145.131ZM164.529 143.4H168.209V141.3H164.529V138.74H161.889V141.3H158.169V143.4H161.889V144.04C161.889 146.8 160.509 149.94 157.549 151.32L158.949 153.34C161.029 152.4 162.449 150.54 163.249 148.32C164.049 150.42 165.489 152.18 167.529 153.08L168.929 151.04C165.949 149.7 164.529 146.72 164.529 144.04V143.4ZM170.429 138.3V143.82H167.329V145.96H170.429V147.62H167.329V149.76H170.429V156.76H173.069V138.3H170.429ZM183.168 142.24H186.968V140.06H176.648V142.24H180.488V143.26C180.488 146.4 178.988 149.78 175.908 151.16L177.408 153.26C179.568 152.28 181.048 150.26 181.868 147.86C182.688 150.08 184.148 151.88 186.288 152.8L187.728 150.72C184.648 149.44 183.168 146.26 183.168 143.26V142.24ZM188.668 138.3V156.72H191.308V138.3H188.668ZM209.286 143.28H199.146V138.96H196.506V145.38H209.286V143.28ZM198.986 150.84H196.326V156.32H209.386V154.22H198.986V150.84ZM194.446 147.26V149.38H211.126V147.26H194.446ZM233.841 145.6C234.301 143.6 234.301 141.98 234.301 140.58V139.12H221.541V141.22H231.661C231.641 142.4 231.601 143.7 231.241 145.34L233.841 145.6ZM229.201 149.78H226.561V150.32C226.561 152.2 224.721 154.14 220.621 154.62L221.581 156.66C224.601 156.24 226.761 155.06 227.901 153.4C229.021 155.06 231.181 156.24 234.201 156.66L235.161 154.62C231.041 154.14 229.201 152.2 229.201 150.32V149.78ZM228.461 146.6V143.2H225.821V146.6H219.661V148.7H236.261V146.6H228.461Z" fill="black"/>
<path d="M63.5 98.92V114H59.58V98.92H63.5ZM70.2903 106.76L64.7903 98.92H69.4703L72.2703 103.04L75.0503 98.92H79.7303L74.2103 106.76V114H70.2903V106.76ZM87.7605 108.4L86.0005 103.38L84.2405 108.4H87.7605ZM88.8005 111.38H83.2005L82.3005 114H78.1205L83.8605 98.92H88.1405L93.8805 114H89.7005L88.8005 111.38ZM102.447 105.56H110.227C110.227 106.36 110.194 107.087 110.127 107.74C110.061 108.393 109.927 109 109.727 109.56C109.447 110.347 109.067 111.047 108.587 111.66C108.107 112.26 107.541 112.767 106.887 113.18C106.247 113.58 105.541 113.887 104.767 114.1C103.994 114.313 103.181 114.42 102.327 114.42C101.154 114.42 100.081 114.227 99.1073 113.84C98.1473 113.453 97.3207 112.913 96.6273 112.22C95.934 111.513 95.394 110.673 95.0073 109.7C94.6207 108.713 94.4273 107.627 94.4273 106.44C94.4273 105.267 94.614 104.193 94.9873 103.22C95.374 102.233 95.914 101.393 96.6073 100.7C97.314 100.007 98.1607 99.4667 99.1473 99.08C100.134 98.6933 101.234 98.5 102.447 98.5C104.021 98.5 105.401 98.84 106.587 99.52C107.774 100.2 108.714 101.253 109.407 102.68L105.687 104.22C105.341 103.393 104.887 102.8 104.327 102.44C103.781 102.08 103.154 101.9 102.447 101.9C101.861 101.9 101.327 102.013 100.847 102.24C100.367 102.453 99.954 102.767 99.6073 103.18C99.274 103.58 99.0073 104.067 98.8073 104.64C98.6207 105.213 98.5273 105.853 98.5273 106.56C98.5273 107.2 98.6073 107.793 98.7673 108.34C98.9407 108.887 99.194 109.36 99.5273 109.76C99.8607 110.16 100.274 110.473 100.767 110.7C101.261 110.913 101.834 111.02 102.487 111.02C102.874 111.02 103.247 110.98 103.607 110.9C103.967 110.807 104.287 110.667 104.567 110.48C104.861 110.28 105.101 110.027 105.287 109.72C105.474 109.413 105.601 109.04 105.667 108.6H102.447V105.56ZM116.625 98.92V114H112.705V98.92H116.625ZM137.432 103.96C136.526 102.853 135.406 102.3 134.072 102.3C133.486 102.3 132.939 102.407 132.432 102.62C131.939 102.833 131.512 103.127 131.152 103.5C130.792 103.86 130.506 104.293 130.292 104.8C130.092 105.307 129.992 105.853 129.992 106.44C129.992 107.04 130.092 107.593 130.292 108.1C130.506 108.607 130.792 109.047 131.152 109.42C131.526 109.793 131.959 110.087 132.452 110.3C132.946 110.513 133.479 110.62 134.052 110.62C135.306 110.62 136.432 110.087 137.432 109.02V113.66L137.032 113.8C136.432 114.013 135.872 114.167 135.352 114.26C134.832 114.367 134.319 114.42 133.812 114.42C132.772 114.42 131.772 114.227 130.812 113.84C129.866 113.44 129.026 112.887 128.292 112.18C127.572 111.46 126.992 110.613 126.552 109.64C126.112 108.653 125.892 107.58 125.892 106.42C125.892 105.26 126.106 104.2 126.532 103.24C126.972 102.267 127.552 101.433 128.272 100.74C129.006 100.033 129.852 99.4867 130.812 99.1C131.772 98.7 132.779 98.5 133.832 98.5C134.432 98.5 135.019 98.5667 135.592 98.7C136.179 98.82 136.792 99.0133 137.432 99.28V103.96ZM143.832 98.92V110.68H148.532V114H139.912V98.92H143.832ZM154.203 98.92V107.12C154.203 107.56 154.216 108.013 154.243 108.48C154.283 108.933 154.383 109.347 154.543 109.72C154.716 110.093 154.983 110.4 155.343 110.64C155.703 110.867 156.21 110.98 156.863 110.98C157.516 110.98 158.016 110.867 158.363 110.64C158.723 110.4 158.99 110.093 159.163 109.72C159.336 109.347 159.436 108.933 159.463 108.48C159.503 108.013 159.523 107.56 159.523 107.12V98.92H163.423V107.66C163.423 110.007 162.883 111.72 161.803 112.8C160.736 113.88 159.09 114.42 156.863 114.42C154.636 114.42 152.983 113.88 151.903 112.8C150.823 111.72 150.283 110.007 150.283 107.66V98.92H154.203ZM170.512 110.96H171.372C172.358 110.96 173.065 110.833 173.492 110.58C173.918 110.327 174.132 109.92 174.132 109.36C174.132 108.8 173.918 108.393 173.492 108.14C173.065 107.887 172.358 107.76 171.372 107.76H170.512V110.96ZM170.512 104.84H171.232C172.458 104.84 173.072 104.353 173.072 103.38C173.072 102.407 172.458 101.92 171.232 101.92H170.512V104.84ZM166.592 98.92H172.432C173.818 98.92 174.872 99.2533 175.592 99.92C176.312 100.587 176.672 101.547 176.672 102.8C176.672 103.56 176.532 104.193 176.252 104.7C175.985 105.193 175.572 105.613 175.012 105.96C175.572 106.067 176.045 106.233 176.432 106.46C176.832 106.673 177.152 106.94 177.392 107.26C177.645 107.58 177.825 107.94 177.932 108.34C178.038 108.74 178.092 109.167 178.092 109.62C178.092 110.327 177.965 110.953 177.712 111.5C177.472 112.047 177.125 112.507 176.672 112.88C176.232 113.253 175.692 113.533 175.052 113.72C174.412 113.907 173.692 114 172.892 114H166.592V98.92Z" fill="black"/>
</svg>
