<svg width="385" height="450" viewBox="0 0 385 450" fill="none" xmlns="http://www.w3.org/2000/svg">
<rect width="385" height="450" rx="25" fill="#458C43"/>
<path d="M54.624 182.848H53.312V193.152H54.624V182.848ZM49.024 189.696H44.88V185.136H49.024V189.696ZM50.304 184.08H43.6V190.752H50.304V184.08ZM46.704 195.648V192.176H45.392V196.704H55.056V195.648H46.704ZM66.6708 184.768H62.9748V182.976H61.6628V184.768H57.9508V185.824H66.6708V184.768ZM64.5108 189.312C64.5108 190.32 63.6148 190.992 62.3188 190.992C61.0388 190.992 60.1428 190.32 60.1428 189.312C60.1428 188.304 61.0388 187.648 62.3188 187.648C63.6148 187.648 64.5108 188.304 64.5108 189.312ZM58.8948 189.312C58.8948 190.944 60.3028 192 62.3188 192C64.3348 192 65.7428 190.944 65.7428 189.312C65.7428 187.696 64.3348 186.624 62.3188 186.624C60.3028 186.624 58.8948 187.696 58.8948 189.312ZM57.8388 194.368C60.4788 194.368 63.9348 194.352 67.1348 193.808L67.0388 192.832C63.9348 193.248 60.3668 193.264 57.6468 193.264L57.8388 194.368ZM67.9508 182.848V197.184H69.2628V182.848H67.9508ZM84.6375 188.304C82.0295 187.92 79.4695 186.144 79.4695 184.144V183.344H78.0935V184.144C78.0935 186.192 75.5655 187.92 72.9575 188.304L73.4855 189.36C75.7255 188.976 77.8855 187.744 78.7815 186C79.7095 187.728 81.8695 188.976 84.0935 189.36L84.6375 188.304ZM85.2615 190.912H72.3015V192H78.0935V197.2H79.4055V192H85.2775L85.2615 190.912ZM91.7614 183.904H93.0094V196.288H91.7614V183.904ZM107.713 190.32H104.145V185.328H107.713V190.32ZM102.833 190.32H100.641V191.392H111.217V190.32H109.025V185.328H111.249V184.272H100.609V185.328H102.833V190.32ZM99.4574 194.256V195.344H112.465V194.256H99.4574ZM121.328 194.336V191.632H125.92V190.576H117.088V188.256H125.584V183.888H115.76V184.96H124.304V187.2H115.792V191.632H120V194.336H114.16V195.408H127.2V194.336H121.328ZM137.007 189.2C135.199 189.568 133.631 189.664 130.975 189.664V184.896H136.207V183.824H129.679V190.736H130.767C133.615 190.736 135.231 190.656 137.151 190.256L137.007 189.2ZM131.135 193.232H139.391V197.2H140.719V192.16H131.135V193.232ZM139.391 182.832V186.544H135.375V187.616H139.391V191.424H140.719V182.832H139.391ZM155.134 190.576H146.606V188.304H154.67V187.264H146.606V185.136H154.99V184.08H145.278V191.632H155.134V190.576ZM143.598 194.256V195.328H156.622V194.256H143.598ZM165.01 185.296H170.498V184.192H163.714V193.648H164.866C167.762 193.648 169.634 193.552 171.842 193.152L171.698 192.048C169.586 192.448 167.778 192.528 165.01 192.528V185.296ZM173.218 182.832V197.216H174.53V182.832H173.218ZM182.336 185.392H185.52V184.304H177.76V185.392H181.04V187.216C181.04 189.648 179.312 192.368 177.264 193.392L178.032 194.432C179.648 193.6 181.04 191.776 181.696 189.68C182.352 191.6 183.696 193.28 185.296 194.08L186.048 193.024C183.968 192.048 182.336 189.504 182.336 187.216V185.392ZM190.912 188.624H188.544V182.848H187.232V197.184H188.544V189.728H190.912V188.624ZM202.655 182.832V197.216H203.967V182.832H202.655ZM196.399 183.936C194.271 183.936 192.751 185.888 192.751 188.944C192.751 192 194.271 193.952 196.399 193.952C198.527 193.952 200.047 192 200.047 188.944C200.047 185.888 198.527 183.936 196.399 183.936ZM196.399 185.12C197.791 185.12 198.783 186.624 198.783 188.944C198.783 191.28 197.791 192.784 196.399 192.784C194.991 192.784 193.999 191.28 193.999 188.944C193.999 186.624 194.991 185.12 196.399 185.12ZM209.038 184.432H207.726V193.744H208.846C211.118 193.744 213.134 193.6 215.406 193.168L215.23 192.048C213.118 192.48 211.166 192.624 209.038 192.64V184.432ZM217.454 182.832V187.568H213.054V188.656H217.454V197.216H218.766V182.832H217.454Z" fill="black"/>
<path d="M54.638 67.256H56.906L63.926 77.732H63.962V67.256H65.69V80H63.494L56.402 69.524H56.366V80H54.638V67.256ZM68.9642 67.256H77.1902V68.876H70.6922V72.674H76.7402V74.294H70.6922V78.38H77.5142V80H68.9642V67.256ZM78.3481 67.256H80.1481L82.9561 77.444H82.9921L85.9981 67.256H87.9781L90.9841 77.444H91.0201L93.8281 67.256H95.6281L91.9201 80H90.1021L87.0061 69.596H86.9701L83.8921 80H82.0741L78.3481 67.256Z" fill="#FFBD1F"/>
<rect x="38.5" y="57.5" width="72" height="31" rx="14.5" stroke="#FFBD1F"/>
<path d="M51.62 118.88H53.06V123.46H55.56V112.3H53.06V116.74H51.62V112.64H49.16V122.96H51.62V118.88ZM45.36 120.2H42.98V118.04H45.36V120.2ZM47.8 113.5H45.36V116.02H42.98V113.5H40.5V122.28H47.8V113.5ZM49.32 128.74C46.92 128.74 45.6 128.26 45.6 127.26C45.6 126.26 46.92 125.78 49.32 125.78C51.68 125.78 53 126.26 53 127.26C53 128.26 51.68 128.74 49.32 128.74ZM49.32 123.76C45.44 123.76 42.96 125.08 42.96 127.26C42.96 129.42 45.44 130.74 49.32 130.74C53.18 130.74 55.64 129.42 55.64 127.26C55.64 125.08 53.18 123.76 49.32 123.76ZM59.6184 119.34L59.9384 121.48L70.4584 120.94C70.3384 122.18 70.1384 123.52 69.7784 125.02L72.3784 125.28C73.2384 121.28 73.2384 118.74 73.2384 116.06V113.92H60.1384V116.02H70.6384V116.06C70.6384 117 70.6384 117.96 70.5984 118.98L59.6184 119.34ZM58.2784 126.38V128.54H74.9184V126.38H58.2784ZM88.4169 118.16H89.8569V121.88H92.3569V112.3H89.8569V116.06H88.4169V112.58H85.9569V121.76H88.4169V118.16ZM85.9369 119.38C83.4769 118.48 82.5369 116.44 82.5369 114.28V113.02H79.9769V114.28C79.9769 116.46 78.9769 118.72 76.3969 119.8L77.7969 121.74C79.4969 121.02 80.6169 119.74 81.2769 118.16C81.8969 119.58 82.9569 120.68 84.5569 121.3L85.9369 119.38ZM82.4769 128.54V127.48H92.3569V122.56H79.8369V124.58H89.7569V125.58H79.8769V130.58H92.9369V128.54H82.4769ZM98.2953 120.76H103.955V113.86H95.6553V115.96H101.335V118.7H95.6953V126.5H97.2153C100.275 126.5 102.715 126.4 105.455 125.96L105.215 123.82C102.895 124.2 100.795 124.32 98.2953 124.34V120.76ZM107.815 112.28V118.92H104.935V121.06H107.815V130.76H110.475V112.28H107.815ZM128.354 120.8H118.034V115.96H128.214V113.82H115.394V122.9H128.354V120.8ZM113.454 126.36V128.52H130.134V126.36H113.454ZM137.772 113.52C134.892 113.52 132.712 115.42 132.712 118.06C132.712 120.72 134.892 122.6 137.772 122.6C140.652 122.6 142.852 120.72 142.852 118.06C142.852 115.42 140.652 113.52 137.772 113.52ZM137.772 115.78C139.192 115.78 140.272 116.62 140.272 118.06C140.272 119.5 139.192 120.34 137.772 120.34C136.352 120.34 135.272 119.5 135.272 118.06C135.272 116.62 136.352 115.78 137.772 115.78ZM144.572 112.28V130.76H147.212V112.28H144.572ZM132.272 127.02C135.452 127.02 139.772 126.98 143.732 126.18L143.572 124.28C139.692 124.86 135.172 124.88 131.932 124.88L132.272 127.02ZM167.228 121.52H163.468V116H167.228V121.52ZM160.848 121.52H158.448V123.62H172.288V121.52H169.848V116H172.348V113.9H158.348V116H160.848V121.52ZM157.048 126.44V128.58H173.728V126.44H157.048ZM185.086 126.54V123.8H190.666V121.68H179.986V119.62H190.246V113.48H177.346V115.58H187.646V117.56H177.366V123.8H182.446V126.54H175.446V128.7H192.126V126.54H185.086ZM203.924 120.2C202.044 120.58 200.384 120.72 197.444 120.74V115.64H203.124V113.54H194.824V122.86H196.284C200.064 122.86 202.004 122.76 204.164 122.3L203.924 120.2ZM196.684 126.32H206.604V130.74H209.244V124.22H196.684V126.32ZM206.604 112.28V116.9H202.264V119H206.604V123.42H209.244V112.28H206.604ZM227.143 121.8H216.883V119.74H226.583V117.7H216.883V115.76H227.003V113.64H214.203V123.88H227.143V121.8ZM212.243 126.46V128.6H228.923V126.46H212.243ZM242.681 115.3H232.721V119.7H245.601V117.92H235.321V116.96H245.281V112.62H232.681V114.4H242.681V115.3ZM235.161 127.78H245.341V123.4H232.521V125.18H242.721V126.12H232.541V130.56H245.841V128.78H235.161V127.78ZM230.641 120.58V122.48H247.321V120.58H230.641ZM46.58 147.62H42.98V142.9H46.58V147.62ZM49.18 140.82H40.4V149.7H49.18V140.82ZM45.12 151.42H42.48V157.4H55.02V155.3H45.12V151.42ZM54.36 144.62V139.3H51.72V152.74H54.36V146.78H56.8V144.62H54.36ZM73.1584 147.8H62.8384V142.96H73.0184V140.82H60.1984V149.9H73.1584V147.8ZM58.2584 153.36V155.52H74.9384V153.36H58.2584ZM91.4969 144.28H81.3569V139.96H78.7169V146.38H91.4969V144.28ZM81.1969 151.84H78.5369V157.32H91.5969V155.22H81.1969V151.84ZM76.6569 148.26V150.38H93.3369V148.26H76.6569ZM108.632 140.72H105.972V143.4C105.972 146.82 104.572 150.34 101.472 151.8L103.052 153.94C105.132 152.92 106.512 150.98 107.312 148.64C108.072 150.84 109.372 152.62 111.292 153.6L112.892 151.52C109.932 150.06 108.632 146.72 108.632 143.4V140.72ZM118.952 146.38H116.272V139.3H113.632V157.72H116.272V148.58H118.952V146.38ZM130.851 146.92C128.551 147.34 126.531 147.46 123.531 147.48V145.82H129.291V140.22H120.891V142.32H126.691V143.86H120.911V149.6H122.491C126.171 149.6 128.511 149.52 131.071 149.04L130.851 146.92ZM125.351 153.1H132.171V155.44H125.351V153.1ZM122.751 157.5H134.751V151.02H122.751V157.5ZM137.191 143.64H134.751V139.3H132.111V150.26H134.751V145.8H137.191V143.64Z" fill="black"/>
<circle cx="259" cy="310" r="70" stroke="#041138" stroke-width="10"/>
</svg>
