<svg width="385" height="450" viewBox="0 0 385 450" fill="none" xmlns="http://www.w3.org/2000/svg">
<rect width="385" height="450" rx="25" fill="#041138"/>
<rect x="358" y="56" width="3" height="18" fill="white"/>
<rect x="174" y="378" width="3" height="18" fill="white"/>
<rect x="118" y="125" width="3" height="18" fill="white"/>
<path d="M45.94 225.4V243.62H48.6V225.4H45.94Z" fill="white"/>
<path d="M112.5 190.76V236H100.74V190.76H112.5ZM276.504 190.76V236H264.744V190.76H276.504Z" fill="#93C191"/>
<path d="M132.871 214.28L116.371 190.76H130.411L138.811 203.12L147.151 190.76H161.191L144.631 214.28V236H132.871V214.28Z" fill="#B4D8FA"/>
<path d="M189.91 219.2L184.63 204.14L179.35 219.2H189.91ZM193.03 228.14H176.23L173.53 236H160.99L178.21 190.76H191.05L208.27 236H195.73L193.03 228.14ZM233.971 210.68H257.311C257.311 213.08 257.211 215.26 257.011 217.22C256.811 219.18 256.411 221 255.811 222.68C254.971 225.04 253.831 227.14 252.391 228.98C250.951 230.78 249.251 232.3 247.291 233.54C245.371 234.74 243.251 235.66 240.931 236.3C238.611 236.94 236.171 237.26 233.611 237.26C230.091 237.26 226.871 236.68 223.951 235.52C221.071 234.36 218.591 232.74 216.511 230.66C214.431 228.54 212.811 226.02 211.651 223.1C210.491 220.14 209.911 216.88 209.911 213.32C209.911 209.8 210.471 206.58 211.591 203.66C212.751 200.7 214.371 198.18 216.451 196.1C218.571 194.02 221.111 192.4 224.071 191.24C227.031 190.08 230.331 189.5 233.971 189.5C238.691 189.5 242.831 190.52 246.391 192.56C249.951 194.6 252.771 197.76 254.851 202.04L243.691 206.66C242.651 204.18 241.291 202.4 239.611 201.32C237.971 200.24 236.091 199.7 233.971 199.7C232.211 199.7 230.611 200.04 229.171 200.72C227.731 201.36 226.491 202.3 225.451 203.54C224.451 204.74 223.651 206.2 223.051 207.92C222.491 209.64 222.211 211.56 222.211 213.68C222.211 215.6 222.451 217.38 222.931 219.02C223.451 220.66 224.211 222.08 225.211 223.28C226.211 224.48 227.451 225.42 228.931 226.1C230.411 226.74 232.131 227.06 234.091 227.06C235.251 227.06 236.371 226.94 237.451 226.7C238.531 226.42 239.491 226 240.331 225.44C241.211 224.84 241.931 224.08 242.491 223.16C243.051 222.24 243.431 221.12 243.631 219.8H233.971V210.68Z" fill="#B4D8FA"/>
<path fill-rule="evenodd" clip-rule="evenodd" d="M47.5 106C51.0899 106 54 103.09 54 99.5C54 95.9101 51.0899 93 47.5 93C43.9101 93 41 95.9101 41 99.5C41 103.09 43.9101 106 47.5 106ZM47.5 102.75C49.2949 102.75 50.75 101.295 50.75 99.5C50.75 97.705 49.2949 96.25 47.5 96.25C45.7051 96.25 44.25 97.705 44.25 99.5C44.25 101.295 45.7051 102.75 47.5 102.75Z" fill="white"/>
<path fill-rule="evenodd" clip-rule="evenodd" d="M215.5 121C219.09 121 222 118.09 222 114.5C222 110.91 219.09 108 215.5 108C211.91 108 209 110.91 209 114.5C209 118.09 211.91 121 215.5 121ZM215.5 117.75C217.295 117.75 218.75 116.295 218.75 114.5C218.75 112.705 217.295 111.25 215.5 111.25C213.705 111.25 212.25 112.705 212.25 114.5C212.25 116.295 213.705 117.75 215.5 117.75Z" fill="white"/>
<path fill-rule="evenodd" clip-rule="evenodd" d="M267.5 44C271.09 44 274 41.0899 274 37.5C274 33.9101 271.09 31 267.5 31C263.91 31 261 33.9101 261 37.5C261 41.0899 263.91 44 267.5 44ZM267.5 40.75C269.295 40.75 270.75 39.2949 270.75 37.5C270.75 35.705 269.295 34.25 267.5 34.25C265.705 34.25 264.25 35.705 264.25 37.5C264.25 39.2949 265.705 40.75 267.5 40.75Z" fill="white"/>
<path fill-rule="evenodd" clip-rule="evenodd" d="M155.5 284C159.09 284 162 281.09 162 277.5C162 273.91 159.09 271 155.5 271C151.91 271 149 273.91 149 277.5C149 281.09 151.91 284 155.5 284ZM155.5 280.75C157.295 280.75 158.75 279.295 158.75 277.5C158.75 275.705 157.295 274.25 155.5 274.25C153.705 274.25 152.25 275.705 152.25 277.5C152.25 279.295 153.705 280.75 155.5 280.75Z" fill="white"/>
<path fill-rule="evenodd" clip-rule="evenodd" d="M241.5 335C245.09 335 248 332.09 248 328.5C248 324.91 245.09 322 241.5 322C237.91 322 235 324.91 235 328.5C235 332.09 237.91 335 241.5 335ZM241.5 331.75C243.295 331.75 244.75 330.295 244.75 328.5C244.75 326.705 243.295 325.25 241.5 325.25C239.705 325.25 238.25 326.705 238.25 328.5C238.25 330.295 239.705 331.75 241.5 331.75Z" fill="white"/>
<path fill-rule="evenodd" clip-rule="evenodd" d="M40.5 420C44.0899 420 47 417.09 47 413.5C47 409.91 44.0899 407 40.5 407C36.9101 407 34 409.91 34 413.5C34 417.09 36.9101 420 40.5 420ZM40.5 416.75C42.2949 416.75 43.75 415.295 43.75 413.5C43.75 411.705 42.2949 410.25 40.5 410.25C38.7051 410.25 37.25 411.705 37.25 413.5C37.25 415.295 38.7051 416.75 40.5 416.75Z" fill="white"/>
<rect x="347" y="225" width="3.18182" height="19" fill="white"/>
<rect x="350.182" y="230.067" width="3.81818" height="3.16667" fill="white"/>
<rect x="350.182" y="235.767" width="3.81818" height="3.16667" fill="white"/>
<rect x="352" y="327" width="3.18182" height="19" fill="white"/>
<rect x="355.182" y="332.067" width="3.81818" height="3.16667" fill="white"/>
<rect x="355.182" y="337.767" width="3.81818" height="3.16667" fill="white"/>
<rect x="98" y="46" width="3.18182" height="19" fill="white"/>
<rect x="101.182" y="51.0667" width="3.81818" height="3.16667" fill="white"/>
<rect x="101.182" y="56.7666" width="3.81818" height="3.16667" fill="white"/>
<rect x="32.875" y="29" width="3.125" height="11" fill="white"/>
<rect x="36" y="29" width="3.05556" height="10" transform="rotate(90 36 29)" fill="white"/>
<rect x="302.875" y="404" width="3.125" height="11" fill="white"/>
<rect x="306" y="404" width="3.05556" height="10" transform="rotate(90 306 404)" fill="white"/>
<rect x="318.875" y="137" width="3.125" height="11" fill="white"/>
<rect x="322" y="137" width="3.05556" height="10" transform="rotate(90 322 137)" fill="white"/>
<rect x="102.875" y="351" width="3.125" height="11" fill="white"/>
<rect x="106" y="351" width="3.05556" height="10" transform="rotate(90 106 351)" fill="white"/>
<rect x="33.875" y="304" width="3.125" height="11" fill="white"/>
<rect x="37" y="304" width="3.05556" height="10" transform="rotate(90 37 304)" fill="white"/>
</svg>
