<svg width="1920" height="537" viewBox="0 0 1920 537" fill="none" xmlns="http://www.w3.org/2000/svg">
<rect width="1920" height="537" fill="#041138"/>
<rect x="486" y="451" width="5" height="30" fill="white"/>
<rect x="491" y="459" width="6" height="5" fill="white"/>
<rect x="491" y="468" width="6" height="5" fill="white"/>
<rect x="739" y="400" width="5" height="30" fill="white"/>
<rect x="744" y="408" width="6" height="5" fill="white"/>
<rect x="744" y="417" width="6" height="5" fill="white"/>
<rect x="1404" y="169" width="5" height="30" fill="white"/>
<rect x="1409" y="177" width="6" height="5" fill="white"/>
<rect x="1409" y="186" width="6" height="5" fill="white"/>
<rect x="1091" y="107" width="5" height="18" fill="white"/>
<rect x="1096" y="107" width="5" height="16" transform="rotate(90 1096 107)" fill="white"/>
<rect x="1565" y="298" width="5" height="18" fill="white"/>
<rect x="1570" y="298" width="5" height="16" transform="rotate(90 1570 298)" fill="white"/>
<rect x="191" y="433" width="5" height="18" fill="white"/>
<rect x="196" y="433" width="5" height="16" transform="rotate(90 196 433)" fill="white"/>
<path fill-rule="evenodd" clip-rule="evenodd" d="M1051 490C1056.52 490 1061 485.523 1061 480C1061 474.477 1056.52 470 1051 470C1045.48 470 1041 474.477 1041 480C1041 485.523 1045.48 490 1051 490ZM1051 485C1053.76 485 1056 482.761 1056 480C1056 477.239 1053.76 475 1051 475C1048.24 475 1046 477.239 1046 480C1046 482.761 1048.24 485 1051 485Z" fill="white"/>
<path fill-rule="evenodd" clip-rule="evenodd" d="M1733 228C1738.52 228 1743 223.523 1743 218C1743 212.477 1738.52 208 1733 208C1727.48 208 1723 212.477 1723 218C1723 223.523 1727.48 228 1733 228ZM1733 223C1735.76 223 1738 220.761 1738 218C1738 215.239 1735.76 213 1733 213C1730.24 213 1728 215.239 1728 218C1728 220.761 1730.24 223 1733 223Z" fill="white"/>
<path fill-rule="evenodd" clip-rule="evenodd" d="M1523 452C1528.52 452 1533 447.523 1533 442C1533 436.477 1528.52 432 1523 432C1517.48 432 1513 436.477 1513 442C1513 447.523 1517.48 452 1523 452ZM1523 447C1525.76 447 1528 444.761 1528 442C1528 439.239 1525.76 437 1523 437C1520.24 437 1518 439.239 1518 442C1518 444.761 1520.24 447 1523 447Z" fill="white"/>
<path fill-rule="evenodd" clip-rule="evenodd" d="M630 191C635.523 191 640 186.523 640 181C640 175.477 635.523 171 630 171C624.477 171 620 175.477 620 181C620 186.523 624.477 191 630 191ZM630 186C632.761 186 635 183.761 635 181C635 178.239 632.761 176 630 176C627.239 176 625 178.239 625 181C625 183.761 627.239 186 630 186Z" fill="white"/>
<path fill-rule="evenodd" clip-rule="evenodd" d="M840 69C845.523 69 850 64.5228 850 59C850 53.4772 845.523 49 840 49C834.477 49 830 53.4772 830 59C830 64.5228 834.477 69 840 69ZM840 64C842.761 64 845 61.7614 845 59C845 56.2386 842.761 54 840 54C837.239 54 835 56.2386 835 59C835 61.7614 837.239 64 840 64Z" fill="white"/>
<rect x="77" y="74" width="5" height="30" fill="white"/>
<rect x="413" y="289" width="5" height="30" fill="white"/>
<rect x="1262" y="304" width="5" height="30" fill="white"/>
<rect x="1316" y="88" width="5" height="30" fill="white"/>
<rect x="1602" y="99" width="5" height="30" fill="white"/>
<rect x="1809" y="412" width="5" height="30" fill="white"/>
<path fill-rule="evenodd" clip-rule="evenodd" d="M262 153C267.523 153 272 148.523 272 143C272 137.477 267.523 133 262 133C256.477 133 252 137.477 252 143C252 148.523 256.477 153 262 153ZM262 148C264.761 148 267 145.761 267 143C267 140.239 264.761 138 262 138C259.239 138 257 140.239 257 143C257 145.761 259.239 148 262 148Z" fill="white"/>
<path d="M816.5 231.6V307H796.9V231.6H816.5ZM1089.84 231.6V307H1070.24V231.6H1089.84Z" fill="#93C191"/>
<path d="M850.452 270.8L822.952 231.6H846.352L860.352 252.2L874.252 231.6H897.652L870.052 270.8V307H850.452V270.8Z" fill="#B4D8FA"/>
<path d="M945.517 279L936.717 253.9L927.917 279H945.517ZM950.717 293.9H922.717L918.217 307H897.317L926.017 231.6H947.417L976.117 307H955.217L950.717 293.9ZM1018.95 264.8H1057.85C1057.85 268.8 1057.68 272.433 1057.35 275.7C1057.02 278.967 1056.35 282 1055.35 284.8C1053.95 288.733 1052.05 292.233 1049.65 295.3C1047.25 298.3 1044.42 300.833 1041.15 302.9C1037.95 304.9 1034.42 306.433 1030.55 307.5C1026.68 308.567 1022.62 309.1 1018.35 309.1C1012.48 309.1 1007.12 308.133 1002.25 306.2C997.452 304.267 993.318 301.567 989.852 298.1C986.385 294.567 983.685 290.367 981.752 285.5C979.818 280.567 978.852 275.133 978.852 269.2C978.852 263.333 979.785 257.967 981.652 253.1C983.585 248.167 986.285 243.967 989.752 240.5C993.285 237.033 997.518 234.333 1002.45 232.4C1007.38 230.467 1012.88 229.5 1018.95 229.5C1026.82 229.5 1033.72 231.2 1039.65 234.6C1045.58 238 1050.28 243.267 1053.75 250.4L1035.15 258.1C1033.42 253.967 1031.15 251 1028.35 249.2C1025.62 247.4 1022.48 246.5 1018.95 246.5C1016.02 246.5 1013.35 247.067 1010.95 248.2C1008.55 249.267 1006.48 250.833 1004.75 252.9C1003.08 254.9 1001.75 257.333 1000.75 260.2C999.818 263.067 999.352 266.267 999.352 269.8C999.352 273 999.752 275.967 1000.55 278.7C1001.42 281.433 1002.68 283.8 1004.35 285.8C1006.02 287.8 1008.08 289.367 1010.55 290.5C1013.02 291.567 1015.88 292.1 1019.15 292.1C1021.08 292.1 1022.95 291.9 1024.75 291.5C1026.55 291.033 1028.15 290.333 1029.55 289.4C1031.02 288.4 1032.22 287.133 1033.15 285.6C1034.08 284.067 1034.72 282.2 1035.05 280H1018.95V264.8Z" fill="#B4D8FA"/>
</svg>
