<svg width="1915" height="537" viewBox="0 0 1915 537" fill="none" xmlns="http://www.w3.org/2000/svg">
<rect width="1920" height="537" fill="#F7F7F7"/>
<rect width="1920" height="537" fill="#F7F7F7"/>
<path d="M691.625 273.356C692.774 274.151 692.774 275.849 691.625 276.644L684.138 281.827C682.812 282.746 681 281.796 681 280.183L681 269.817C681 268.204 682.812 267.254 684.138 268.173L691.625 273.356Z" fill="black"/>
<circle cx="1278" cy="239" r="100" fill="#5AAFFF"/>
<path d="M1203.75 207.33L1219.54 216.928L1220.91 214.672L1205.12 205.074L1203.75 207.33ZM1201.09 214.209C1199.65 216.584 1200.73 219.653 1204.18 221.752C1207.65 223.861 1210.89 223.42 1212.34 221.044C1213.78 218.668 1212.68 215.589 1209.21 213.48C1205.76 211.382 1202.53 211.833 1201.09 214.209ZM1203.12 215.445C1203.83 214.283 1205.57 214.238 1207.89 215.651C1210.23 217.074 1210.99 218.635 1210.28 219.797C1209.58 220.96 1207.84 221.005 1205.5 219.581C1203.18 218.169 1202.42 216.607 1203.12 215.445Z" fill="black"/>
<path d="M1225.41 197.01C1224.51 198.057 1222.81 197.802 1220.73 196.016C1218.68 194.255 1218.16 192.593 1219.06 191.546C1219.95 190.515 1221.68 190.767 1223.73 192.528C1225.81 194.314 1226.3 195.979 1225.41 197.01ZM1217.25 189.994C1215.43 192.117 1216.01 195.307 1219.07 197.941C1222.15 200.589 1225.41 200.698 1227.23 198.575C1229.04 196.467 1228.46 193.249 1225.38 190.602C1222.32 187.968 1219.07 187.887 1217.25 189.994ZM1229.02 184.258L1227.38 182.85L1225.73 184.776L1222.46 181.972L1220.74 183.974L1234.71 195.984L1236.43 193.982L1231.44 189.692L1233.1 187.766L1231.46 186.358L1229.8 188.284L1227.36 186.184L1229.02 184.258Z" fill="black"/>
<path d="M1239.47 172.891L1240.64 174.632L1245.73 171.195C1247.7 174.789 1247.62 178.317 1244.99 182.821L1247.3 183.772C1250.95 177.493 1249.95 172.617 1246.79 167.944L1239.47 172.891ZM1248.06 164.774L1258.37 180.039L1260.57 178.55L1250.26 163.285L1248.06 164.774Z" fill="black"/>
<path d="M1270.02 159.262L1270.16 161.398L1276.17 161.018C1275.95 165.12 1273.85 168.178 1269.72 170.644L1271.33 172.566C1277.24 169.086 1279.03 164.223 1278.69 158.714L1270.02 159.262ZM1286.48 163.371L1283.9 163.534L1283.46 156.508L1280.82 156.675L1281.98 175.038L1284.62 174.872L1284.04 165.71L1286.61 165.547L1286.48 163.371Z" fill="black"/>
<path d="M1321.04 185.259L1323.26 186.683L1328.46 178.565L1326.24 177.141L1325.06 178.977L1323.3 177.845L1322.17 179.596L1323.94 180.729L1323.27 181.773L1321.51 180.64L1320.39 182.375L1322.16 183.508L1321.04 185.259ZM1317.6 175.242L1319.05 176.169L1316.78 179.706C1316.28 179.41 1315.8 179.125 1315.31 178.812L1317.6 175.242ZM1320.48 181.763C1319.99 181.523 1319.5 181.254 1318.99 180.975L1321.19 177.539L1322.42 178.327L1323.53 176.592L1315.34 171.35L1314.23 173.084L1315.46 173.872L1313.15 177.476L1311.54 176.441L1310.62 178.349C1313.17 179.978 1316.47 182.02 1319.59 183.45L1320.48 181.763ZM1311.67 187.14L1312.25 186.231L1320.27 191.365L1322.89 187.273L1312.66 180.725L1311.59 182.409L1319.62 187.554L1319.08 188.397L1311.06 183.262L1308.41 187.405L1319.05 194.222L1320.12 192.555L1311.67 187.14Z" fill="black"/>
<path d="M1340.88 202.012L1342.83 205.135L1344.61 204.024L1342.66 200.901L1344.83 199.547L1343.44 197.306L1341.26 198.661L1339.3 195.504L1337.51 196.615L1339.48 199.772L1338.94 200.11C1336.6 201.57 1333.2 202.06 1330.47 200.278L1329.49 202.535C1331.39 203.803 1333.72 204.024 1336.03 203.528C1334.67 205.318 1333.94 207.471 1334.25 209.678L1336.72 209.787C1336.28 206.55 1338.06 203.768 1340.34 202.35L1340.88 202.012ZM1348.33 204.321L1343.64 207.241L1342 204.61L1340.19 205.742L1341.83 208.373L1340.42 209.251L1338.78 206.62L1336.96 207.752L1338.6 210.383L1332.66 214.086L1334.06 216.327L1349.72 206.561L1348.33 204.321Z" fill="black"/>
<path d="M1353.08 231.454L1353.97 235.148L1356.09 234.637L1353.67 224.604L1351.55 225.115L1352.45 228.848L1351.46 229.087C1348.41 229.822 1344.77 229.156 1342.71 226.484L1341.02 228.434C1342.48 230.305 1344.79 231.271 1347.31 231.506C1345.34 232.823 1343.94 234.664 1343.54 236.96L1345.9 237.873C1346.43 234.579 1349.17 232.395 1352.09 231.692L1353.08 231.454ZM1358.2 235.878L1340.29 240.192L1340.91 242.758L1358.82 238.445L1358.2 235.878Z" fill="black"/>
<path d="M1352.94 272.311L1353.85 262.212L1358.15 262.598L1358.39 259.969L1351.99 259.395L1350.85 272.123L1352.94 272.311ZM1346.33 261.376L1346.57 258.727L1341.11 258.237L1339.94 271.245L1342.03 271.432L1342.97 261.074L1346.33 261.376ZM1350.3 257.175L1348.19 256.985L1346.7 273.598L1348.81 273.788L1350.3 257.175Z" fill="black"/>
<path d="M1316.42 307.241C1317.52 308.976 1318.67 310.116 1319.66 311.102L1320.7 312.129L1329.68 303.066L1328.19 301.588L1321.07 308.776C1320.24 307.931 1319.35 306.988 1318.44 305.577L1316.42 307.241ZM1316.72 301.003L1318.58 299.128L1318.19 298.748C1316.86 297.424 1316.78 294.752 1319.32 291.502L1317.2 290.748C1315.37 293.188 1314.69 295.553 1315.06 297.531C1313.1 297.158 1310.74 297.862 1308.31 299.711L1309.09 301.829C1312.33 299.241 1315 299.299 1316.34 300.623L1316.72 301.003ZM1319.5 302.716L1321.91 305.109L1323.77 303.234L1321.36 300.841L1325.69 296.466L1324.2 294.987L1312.52 306.778L1314.01 308.256L1319.5 302.716Z" fill="black"/>
<path d="M540.875 137.15V156H535.975V137.15H540.875ZM549.363 146.95L542.488 137.15H548.338L551.838 142.3L555.313 137.15H561.163L554.263 146.95V156H549.363V146.95ZM571.201 149L569.001 142.725L566.801 149H571.201ZM572.501 152.725H565.501L564.376 156H559.151L566.326 137.15H571.676L578.851 156H573.626L572.501 152.725ZM589.559 145.45H599.284C599.284 146.45 599.243 147.358 599.159 148.175C599.076 148.992 598.909 149.75 598.659 150.45C598.309 151.433 597.834 152.308 597.234 153.075C596.634 153.825 595.926 154.458 595.109 154.975C594.309 155.475 593.426 155.858 592.459 156.125C591.493 156.392 590.476 156.525 589.409 156.525C587.943 156.525 586.601 156.283 585.384 155.8C584.184 155.317 583.151 154.642 582.284 153.775C581.418 152.892 580.743 151.842 580.259 150.625C579.776 149.392 579.534 148.033 579.534 146.55C579.534 145.083 579.768 143.742 580.234 142.525C580.718 141.292 581.393 140.242 582.259 139.375C583.143 138.508 584.201 137.833 585.434 137.35C586.668 136.867 588.043 136.625 589.559 136.625C591.526 136.625 593.251 137.05 594.734 137.9C596.218 138.75 597.393 140.067 598.259 141.85L593.609 143.775C593.176 142.742 592.609 142 591.909 141.55C591.226 141.1 590.443 140.875 589.559 140.875C588.826 140.875 588.159 141.017 587.559 141.3C586.959 141.567 586.443 141.958 586.009 142.475C585.593 142.975 585.259 143.583 585.009 144.3C584.776 145.017 584.659 145.817 584.659 146.7C584.659 147.5 584.759 148.242 584.959 148.925C585.176 149.608 585.493 150.2 585.909 150.7C586.326 151.2 586.843 151.592 587.459 151.875C588.076 152.142 588.793 152.275 589.609 152.275C590.093 152.275 590.559 152.225 591.009 152.125C591.459 152.008 591.859 151.833 592.209 151.6C592.576 151.35 592.876 151.033 593.109 150.65C593.343 150.267 593.501 149.8 593.584 149.25H589.559V145.45ZM607.281 137.15V156H602.381V137.15H607.281ZM633.29 143.45C632.157 142.067 630.757 141.375 629.09 141.375C628.357 141.375 627.674 141.508 627.04 141.775C626.424 142.042 625.89 142.408 625.44 142.875C624.99 143.325 624.632 143.867 624.365 144.5C624.115 145.133 623.99 145.817 623.99 146.55C623.99 147.3 624.115 147.992 624.365 148.625C624.632 149.258 624.99 149.808 625.44 150.275C625.907 150.742 626.449 151.108 627.065 151.375C627.682 151.642 628.349 151.775 629.065 151.775C630.632 151.775 632.04 151.108 633.29 149.775V155.575L632.79 155.75C632.04 156.017 631.34 156.208 630.69 156.325C630.04 156.458 629.399 156.525 628.765 156.525C627.465 156.525 626.215 156.283 625.015 155.8C623.832 155.3 622.782 154.608 621.865 153.725C620.965 152.825 620.24 151.767 619.69 150.55C619.14 149.317 618.865 147.975 618.865 146.525C618.865 145.075 619.132 143.75 619.665 142.55C620.215 141.333 620.94 140.292 621.84 139.425C622.757 138.542 623.815 137.858 625.015 137.375C626.215 136.875 627.474 136.625 628.79 136.625C629.54 136.625 630.274 136.708 630.99 136.875C631.724 137.025 632.49 137.267 633.29 137.6V143.45ZM641.29 137.15V151.85H647.165V156H636.39V137.15H641.29ZM654.254 137.15V147.4C654.254 147.95 654.271 148.517 654.304 149.1C654.354 149.667 654.479 150.183 654.679 150.65C654.896 151.117 655.229 151.5 655.679 151.8C656.129 152.083 656.762 152.225 657.579 152.225C658.396 152.225 659.021 152.083 659.454 151.8C659.904 151.5 660.237 151.117 660.454 150.65C660.671 150.183 660.796 149.667 660.829 149.1C660.879 148.517 660.904 147.95 660.904 147.4V137.15H665.779V148.075C665.779 151.008 665.104 153.15 663.754 154.5C662.421 155.85 660.362 156.525 657.579 156.525C654.796 156.525 652.729 155.85 651.379 154.5C650.029 153.15 649.354 151.008 649.354 148.075V137.15H654.254ZM674.64 152.2H675.715C676.948 152.2 677.831 152.042 678.365 151.725C678.898 151.408 679.165 150.9 679.165 150.2C679.165 149.5 678.898 148.992 678.365 148.675C677.831 148.358 676.948 148.2 675.715 148.2H674.64V152.2ZM674.64 144.55H675.54C677.073 144.55 677.84 143.942 677.84 142.725C677.84 141.508 677.073 140.9 675.54 140.9H674.64V144.55ZM669.74 137.15H677.04C678.773 137.15 680.09 137.567 680.99 138.4C681.89 139.233 682.34 140.433 682.34 142C682.34 142.95 682.165 143.742 681.815 144.375C681.481 144.992 680.965 145.517 680.265 145.95C680.965 146.083 681.556 146.292 682.04 146.575C682.54 146.842 682.94 147.175 683.24 147.575C683.556 147.975 683.781 148.425 683.915 148.925C684.048 149.425 684.115 149.958 684.115 150.525C684.115 151.408 683.956 152.192 683.64 152.875C683.34 153.558 682.906 154.133 682.34 154.6C681.79 155.067 681.115 155.417 680.315 155.65C679.515 155.883 678.615 156 677.615 156H669.74V137.15Z" fill="black"/>
<path d="M550.85 189.1V212.2H554.15V189.1H550.85ZM541.775 190.725C538.3 190.725 535.725 193.875 535.725 198.925C535.725 204 538.3 207.175 541.775 207.175C545.25 207.175 547.825 204 547.825 198.925C547.825 193.875 545.25 190.725 541.775 190.725ZM541.775 193.7C543.475 193.7 544.65 195.525 544.65 198.925C544.65 202.35 543.475 204.175 541.775 204.175C540.075 204.175 538.9 202.35 538.9 198.925C538.9 195.525 540.075 193.7 541.775 193.7ZM564.248 204.175C562.523 204.175 561.373 202.35 561.373 198.925C561.373 195.55 562.523 193.7 564.248 193.7C565.948 193.7 567.123 195.55 567.123 198.925C567.123 202.35 565.948 204.175 564.248 204.175ZM564.248 190.725C560.748 190.725 558.198 193.875 558.198 198.925C558.198 204 560.748 207.175 564.248 207.175C567.723 207.175 570.298 204 570.298 198.925C570.298 193.875 567.723 190.725 564.248 190.725ZM579.273 197.2V194.5H576.098V189.125H572.798V212.15H576.098V203.925H579.273V201.225H576.098V197.2H579.273ZM582.346 191.5V194.125H590.021C589.546 199.225 586.996 202.825 581.121 205.65L582.846 208.25C591.021 204.3 593.396 198.55 593.396 191.5H582.346ZM596.921 189.1V212.125H600.246V189.1H596.921ZM605.119 191.475V194.15H612.644C612.044 199.25 609.194 202.9 603.844 205.65L605.694 208.175C613.344 204.3 615.969 198.375 615.969 191.475H605.119ZM625.319 197.9H622.094V189.1H618.794V212.1H622.094V200.625H625.319V197.9ZM651.513 201.2H654.813V189.15H651.513V191.875H648.888V194.475H651.513V196.025H648.888V198.6H651.513V201.2ZM641.138 192.975H643.288V198.225C642.563 198.25 641.863 198.275 641.138 198.275V192.975ZM648.563 197.9C647.888 197.975 647.188 198.025 646.463 198.075V192.975H648.288V190.4H636.138V192.975H637.963V198.325H635.563L635.888 200.95C639.663 200.95 644.513 200.875 648.763 200.275L648.563 197.9ZM642.913 209.5V208.15H654.813V202.075H639.638V204.575H651.563V205.825H639.663V211.975H655.463V209.5H642.913ZM667.161 195.5H671.761V192.875H667.161V189.675H663.861V192.875H659.211V195.5H663.861V196.3C663.861 199.75 662.136 203.675 658.436 205.4L660.186 207.925C662.786 206.75 664.561 204.425 665.561 201.65C666.561 204.275 668.361 206.475 670.911 207.6L672.661 205.05C668.936 203.375 667.161 199.65 667.161 196.3V195.5ZM674.536 189.125V196.025H670.661V198.7H674.536V200.775H670.661V203.45H674.536V212.2H677.836V189.125H674.536ZM690.459 194.05H695.209V191.325H682.309V194.05H687.109V195.325C687.109 199.25 685.234 203.475 681.384 205.2L683.259 207.825C685.959 206.6 687.809 204.075 688.834 201.075C689.859 203.85 691.684 206.1 694.359 207.25L696.159 204.65C692.309 203.05 690.459 199.075 690.459 195.325V194.05ZM697.334 189.125V212.15H700.634V189.125H697.334ZM723.107 195.35H710.432V189.95H707.132V197.975H723.107V195.35ZM710.232 204.8H706.907V211.65H723.232V209.025H710.232V204.8ZM704.557 200.325V202.975H725.407V200.325H704.557ZM753.802 198.25C754.377 195.75 754.377 193.725 754.377 191.975V190.15H738.427V192.775H751.077C751.052 194.25 751.002 195.875 750.552 197.925L753.802 198.25ZM748.002 203.475H744.702V204.15C744.702 206.5 742.402 208.925 737.277 209.525L738.477 212.075C742.252 211.55 744.952 210.075 746.377 208C747.777 210.075 750.477 211.55 754.252 212.075L755.452 209.525C750.302 208.925 748.002 206.5 748.002 204.15V203.475ZM747.077 199.5V195.25H743.777V199.5H736.077V202.125H756.827V199.5H747.077ZM759.3 199.175C759.3 198.775 759.375 198.4 759.525 198.05C759.675 197.683 759.883 197.367 760.15 197.1C760.416 196.833 760.725 196.625 761.075 196.475C761.441 196.325 761.825 196.25 762.225 196.25C762.625 196.25 763 196.325 763.35 196.475C763.716 196.625 764.033 196.833 764.3 197.1C764.566 197.367 764.775 197.683 764.925 198.05C765.075 198.4 765.15 198.775 765.15 199.175C765.15 199.575 765.075 199.958 764.925 200.325C764.775 200.675 764.566 200.983 764.3 201.25C764.033 201.517 763.716 201.725 763.35 201.875C763 202.025 762.625 202.1 762.225 202.1C761.825 202.1 761.441 202.025 761.075 201.875C760.725 201.725 760.416 201.517 760.15 201.25C759.883 200.983 759.675 200.675 759.525 200.325C759.375 199.958 759.3 199.575 759.3 199.175ZM759.3 207.6C759.3 207.2 759.375 206.825 759.525 206.475C759.675 206.108 759.883 205.792 760.15 205.525C760.416 205.258 760.725 205.05 761.075 204.9C761.441 204.75 761.825 204.675 762.225 204.675C762.625 204.675 763 204.75 763.35 204.9C763.716 205.05 764.033 205.258 764.3 205.525C764.566 205.792 764.775 206.108 764.925 206.475C765.075 206.825 765.15 207.2 765.15 207.6C765.15 208 765.075 208.383 764.925 208.75C764.775 209.1 764.566 209.408 764.3 209.675C764.033 209.942 763.716 210.15 763.35 210.3C763 210.45 762.625 210.525 762.225 210.525C761.825 210.525 761.441 210.45 761.075 210.3C760.725 210.15 760.416 209.942 760.15 209.675C759.883 209.408 759.675 209.1 759.525 208.75C759.375 208.383 759.3 208 759.3 207.6ZM791.817 189.1V212.2H795.117V189.1H791.817ZM782.742 190.725C779.267 190.725 776.692 193.875 776.692 198.925C776.692 204 779.267 207.175 782.742 207.175C786.217 207.175 788.792 204 788.792 198.925C788.792 193.875 786.217 190.725 782.742 190.725ZM782.742 193.7C784.442 193.7 785.617 195.525 785.617 198.925C785.617 202.35 784.442 204.175 782.742 204.175C781.042 204.175 779.867 202.35 779.867 198.925C779.867 195.525 781.042 193.7 782.742 193.7ZM805.215 204.175C803.49 204.175 802.34 202.35 802.34 198.925C802.34 195.55 803.49 193.7 805.215 193.7C806.915 193.7 808.09 195.55 808.09 198.925C808.09 202.35 806.915 204.175 805.215 204.175ZM805.215 190.725C801.715 190.725 799.165 193.875 799.165 198.925C799.165 204 801.715 207.175 805.215 207.175C808.69 207.175 811.265 204 811.265 198.925C811.265 193.875 808.69 190.725 805.215 190.725ZM820.24 197.2V194.5H817.065V189.125H813.765V212.15H817.065V203.925H820.24V201.225H817.065V197.2H820.24ZM823.313 191.5V194.125H830.988C830.513 199.225 827.963 202.825 822.088 205.65L823.813 208.25C831.988 204.3 834.363 198.55 834.363 191.5H823.313ZM837.888 189.1V212.125H841.213V189.1H837.888ZM859.107 208.025H872.082V201.95H855.807V204.425H868.807V205.675H855.857V211.875H872.832V209.4H859.107V208.025ZM871.532 197.975C871.932 195.65 871.932 193.75 871.932 191.975V189.925H856.107V192.475H868.682C868.682 192.9 868.682 193.35 868.657 193.8L855.457 194.1L855.807 196.625L868.507 196.075C868.432 196.7 868.332 197.3 868.232 197.975H853.582V200.575H874.307V197.975H871.532ZM889.38 198.25C886.555 198.7 884.105 198.8 880.68 198.825V196.9H887.755V189.975H877.38V192.6H884.505V194.45H877.405V201.475H879.305C883.505 201.475 886.38 201.4 889.605 200.9L889.38 198.25ZM892.53 209.25H883.655V207.375H892.53V209.25ZM892.53 204.85H883.655V202.85H880.38V211.875H895.78V202.85H892.53V204.85ZM892.48 189.125V193.575H888.905V196.2H892.48V201.9H895.78V189.125H892.48Z" fill="black"/>
<path d="M558.394 265.54V283.52H560.034V265.54H558.394ZM550.574 266.92C547.914 266.92 546.014 269.36 546.014 273.18C546.014 277 547.914 279.44 550.574 279.44C553.234 279.44 555.134 277 555.134 273.18C555.134 269.36 553.234 266.92 550.574 266.92ZM550.574 268.4C552.314 268.4 553.554 270.28 553.554 273.18C553.554 276.1 552.314 277.98 550.574 277.98C548.814 277.98 547.574 276.1 547.574 273.18C547.574 270.28 548.814 268.4 550.574 268.4ZM568.533 277.98C566.793 277.98 565.573 276.08 565.573 273.16C565.573 270.28 566.793 268.4 568.533 268.4C570.253 268.4 571.473 270.28 571.473 273.16C571.473 276.08 570.253 277.98 568.533 277.98ZM568.533 266.92C565.893 266.92 564.013 269.36 564.013 273.16C564.013 277 565.893 279.44 568.533 279.44C571.173 279.44 573.033 277 573.033 273.16C573.033 269.36 571.173 266.92 568.533 266.92ZM580.413 271.42V270.06H577.553V265.56H575.913V283.48H577.553V276.76H580.413V275.4H577.553V271.42H580.413ZM583.211 267.48V268.8H589.951C589.611 273.06 587.211 276.5 582.391 278.8L583.271 280.14C589.231 277.22 591.611 272.66 591.611 267.48H583.211ZM595.231 265.54V283.48H596.871V265.54H595.231ZM609.696 280.08H620.396V275.9H608.036V277.18H618.796V278.86H608.076V283.24H621.036V281.96H609.696V280.08ZM619.876 272.88C620.296 270.76 620.296 269.16 620.296 267.76V266.4H608.196V267.7H618.676V267.76C618.676 268.28 618.676 268.84 618.656 269.44L607.756 269.78L607.956 271.08L618.576 270.6C618.496 271.28 618.396 272.04 618.216 272.88H606.156V274.2H622.316V272.88H619.876ZM634.634 273.08C631.974 273.5 629.774 273.58 626.874 273.58V271.16H633.174V266.28H625.214V267.62H631.574V269.9H625.274V274.92H626.634C629.714 274.92 631.994 274.86 634.774 274.42L634.634 273.08ZM637.674 281.9H629.234V279.7H637.674V281.9ZM637.674 278.4H629.234V276.26H627.594V283.24H639.294V276.26H637.674V278.4ZM637.634 265.56V269.28H634.314V270.6H637.634V275.42H639.294V265.56H637.634ZM651.013 267.48C653.833 267.48 655.633 268.32 655.633 269.74C655.633 271.16 653.833 271.98 651.013 271.98C648.193 271.98 646.393 271.16 646.393 269.74C646.393 268.32 648.193 267.48 651.013 267.48ZM651.013 273.3C654.853 273.3 657.313 271.98 657.313 269.74C657.313 267.5 654.853 266.16 651.013 266.16C647.173 266.16 644.713 267.5 644.713 269.74C644.713 271.98 647.173 273.3 651.013 273.3ZM646.633 277.88H644.993V283.08H657.333V281.74H646.633V277.88ZM642.893 274.98V276.3H659.113V274.98H642.893ZM664.451 278.04V276.82C664.451 276.46 664.478 276.16 664.531 275.92C664.584 275.68 664.664 275.467 664.771 275.28C664.878 275.08 665.018 274.893 665.191 274.72C665.378 274.533 665.604 274.313 665.871 274.06C666.084 273.86 666.298 273.66 666.511 273.46C666.724 273.247 666.918 273.033 667.091 272.82C667.264 272.593 667.404 272.36 667.511 272.12C667.631 271.867 667.691 271.587 667.691 271.28C667.691 270.973 667.631 270.693 667.511 270.44C667.404 270.173 667.258 269.947 667.071 269.76C666.884 269.573 666.658 269.427 666.391 269.32C666.138 269.213 665.864 269.16 665.571 269.16C664.918 269.16 664.384 269.367 663.971 269.78C663.571 270.193 663.331 270.733 663.251 271.4L661.211 271.2C661.384 270.04 661.864 269.133 662.651 268.48C663.451 267.813 664.438 267.48 665.611 267.48C666.171 267.48 666.691 267.567 667.171 267.74C667.664 267.9 668.091 268.14 668.451 268.46C668.811 268.767 669.091 269.153 669.291 269.62C669.504 270.073 669.611 270.593 669.611 271.18C669.611 271.687 669.538 272.133 669.391 272.52C669.244 272.893 669.038 273.247 668.771 273.58L667.571 274.82L667.371 275C667.158 275.2 666.984 275.373 666.851 275.52C666.731 275.653 666.631 275.8 666.551 275.96C666.484 276.107 666.438 276.273 666.411 276.46C666.384 276.647 666.371 276.88 666.371 277.16V278.04H664.451ZM664.071 280.8C664.071 280.44 664.198 280.133 664.451 279.88C664.718 279.613 665.031 279.48 665.391 279.48C665.751 279.48 666.058 279.613 666.311 279.88C666.578 280.133 666.711 280.44 666.711 280.8C666.711 281.16 666.578 281.473 666.311 281.74C666.058 281.993 665.751 282.12 665.391 282.12C665.031 282.12 664.718 281.993 664.451 281.74C664.198 281.473 664.071 281.16 664.071 280.8Z" fill="black"/>
<rect x="534.75" y="255.75" width="173.5" height="36.5" rx="14.25" stroke="black" stroke-width="1.5"/>
</svg>
