<svg width="1920" height="537" viewBox="0 0 1920 537" fill="none" xmlns="http://www.w3.org/2000/svg">
<rect width="1920" height="537" fill="#458C43"/>
<path d="M555.82 78.84H558.34L566.14 90.48H566.18V78.84H568.1V93H565.66L557.78 81.36H557.74V93H555.82V78.84ZM571.738 78.84H580.878V80.64H573.658V84.86H580.378V86.66H573.658V91.2H581.238V93H571.738V78.84ZM582.165 78.84H584.165L587.285 90.16H587.325L590.665 78.84H592.865L596.205 90.16H596.245L599.365 78.84H601.365L597.245 93H595.225L591.785 81.44H591.745L588.325 93H586.305L582.165 78.84Z" fill="#FFBD1F"/>
<rect x="539.5" y="67.5" width="74" height="37" rx="14.5" stroke="#FFBD1F"/>
<path d="M835.1 198.54V216.52H836.74V198.54H835.1ZM827.28 199.92C824.62 199.92 822.72 202.36 822.72 206.18C822.72 210 824.62 212.44 827.28 212.44C829.94 212.44 831.84 210 831.84 206.18C831.84 202.36 829.94 199.92 827.28 199.92ZM827.28 201.4C829.02 201.4 830.26 203.28 830.26 206.18C830.26 209.1 829.02 210.98 827.28 210.98C825.52 210.98 824.28 209.1 824.28 206.18C824.28 203.28 825.52 201.4 827.28 201.4ZM845.238 210.98C843.498 210.98 842.278 209.08 842.278 206.16C842.278 203.28 843.498 201.4 845.238 201.4C846.958 201.4 848.178 203.28 848.178 206.16C848.178 209.08 846.958 210.98 845.238 210.98ZM845.238 199.92C842.598 199.92 840.718 202.36 840.718 206.16C840.718 210 842.598 212.44 845.238 212.44C847.878 212.44 849.738 210 849.738 206.16C849.738 202.36 847.878 199.92 845.238 199.92ZM857.118 204.42V203.06H854.258V198.56H852.618V216.48H854.258V209.76H857.118V208.4H854.258V204.42H857.118ZM859.917 200.48V201.8H866.657C866.317 206.06 863.917 209.5 859.097 211.8L859.977 213.14C865.937 210.22 868.317 205.66 868.317 200.48H859.917ZM871.937 198.54V216.48H873.577V198.54H871.937ZM897.122 203.26H886.622V200.46H896.942V199.14H884.982V204.58H897.122V203.26ZM886.422 213.14H896.962V208.92H884.762V210.2H895.342V211.92H884.822V216.26H897.502V214.98H886.422V213.14ZM882.822 206.02V207.36H899.062V206.02H882.822ZM909.32 199.66C905.6 199.66 902.8 201.64 902.8 204.62C902.8 207.62 905.6 209.58 909.32 209.58C913.04 209.58 915.84 207.62 915.84 204.62C915.84 201.64 913.04 199.66 909.32 199.66ZM909.32 201C912.16 201 914.28 202.46 914.28 204.62C914.28 206.8 912.16 208.24 909.32 208.24C906.5 208.24 904.36 206.8 904.36 204.62C904.36 202.46 906.5 201 909.32 201ZM901.2 212.74V214.1H917.5V212.74H901.2ZM921.899 206.48H928.259V200.2H920.239V201.54H926.659V205.16H920.279V212.18H921.659C924.899 212.18 927.179 212.08 929.879 211.6L929.719 210.24C927.139 210.7 924.959 210.82 921.899 210.82V206.48ZM932.739 198.52V205.44H929.319V206.78H932.739V216.5H934.379V198.52H932.739ZM944.543 200.46V201.82H951.123C950.743 206.06 948.283 209.5 943.703 211.8L944.603 213.08C950.403 210.18 952.743 205.56 952.743 200.46H944.543ZM960.263 205.82H957.383V198.54H955.743V216.48H957.383V207.18H960.263V205.82ZM963.042 200.48V201.8H969.782C969.442 206.06 967.042 209.5 962.222 211.8L963.102 213.14C969.062 210.22 971.442 205.66 971.442 200.48H963.042ZM975.062 198.54V216.48H976.702V198.54H975.062Z" fill="black"/>
<rect x="809.75" y="188.75" width="206.5" height="36.5" rx="14.25" stroke="black" stroke-width="1.5"/>
<path d="M999.95 206.031C1001.1 206.826 1001.1 208.524 999.95 209.32L992.463 214.503C991.137 215.421 989.325 214.471 989.325 212.858L989.325 202.492C989.325 200.879 991.137 199.93 992.463 200.848L999.95 206.031Z" fill="black"/>
<circle cx="1266" cy="246" r="95" stroke="#041138" stroke-width="10"/>
<path d="M554.775 142.35H556.575V148.075H559.7V134.125H556.575V139.675H554.775V134.55H551.7V147.45H554.775V142.35ZM546.95 144H543.975V141.3H546.95V144ZM550 135.625H546.95V138.775H543.975V135.625H540.875V146.6H550V135.625ZM551.9 154.675C548.9 154.675 547.25 154.075 547.25 152.825C547.25 151.575 548.9 150.975 551.9 150.975C554.85 150.975 556.5 151.575 556.5 152.825C556.5 154.075 554.85 154.675 551.9 154.675ZM551.9 148.45C547.05 148.45 543.95 150.1 543.95 152.825C543.95 155.525 547.05 157.175 551.9 157.175C556.725 157.175 559.8 155.525 559.8 152.825C559.8 150.1 556.725 148.45 551.9 148.45ZM564.773 142.925L565.173 145.6L578.323 144.925C578.173 146.475 577.923 148.15 577.473 150.025L580.723 150.35C581.798 145.35 581.798 142.175 581.798 138.825V136.15H565.423V138.775H578.548V138.825C578.548 140 578.548 141.2 578.498 142.475L564.773 142.925ZM563.098 151.725V154.425H583.898V151.725H563.098ZM600.771 141.45H602.571V146.1H605.696V134.125H602.571V138.825H600.771V134.475H597.696V145.95H600.771V141.45ZM597.671 142.975C594.596 141.85 593.421 139.3 593.421 136.6V135.025H590.221V136.6C590.221 139.325 588.971 142.15 585.746 143.5L587.496 145.925C589.621 145.025 591.021 143.425 591.846 141.45C592.621 143.225 593.946 144.6 595.946 145.375L597.671 142.975ZM593.346 154.425V153.1H605.696V146.95H590.046V149.475H602.446V150.725H590.096V156.975H606.421V154.425H593.346ZM613.119 144.7H620.194V136.075H609.819V138.7H616.919V142.125H609.869V151.875H611.769C615.594 151.875 618.644 151.75 622.069 151.2L621.769 148.525C618.869 149 616.244 149.15 613.119 149.175V144.7ZM625.019 134.1V142.4H621.419V145.075H625.019V157.2H628.344V134.1H625.019ZM650.692 144.75H637.792V138.7H650.517V136.025H634.492V147.375H650.692V144.75ZM632.067 151.7V154.4H652.917V151.7H632.067ZM662.465 135.65C658.865 135.65 656.14 138.025 656.14 141.325C656.14 144.65 658.865 147 662.465 147C666.065 147 668.815 144.65 668.815 141.325C668.815 138.025 666.065 135.65 662.465 135.65ZM662.465 138.475C664.24 138.475 665.59 139.525 665.59 141.325C665.59 143.125 664.24 144.175 662.465 144.175C660.69 144.175 659.34 143.125 659.34 141.325C659.34 139.525 660.69 138.475 662.465 138.475ZM670.965 134.1V157.2H674.265V134.1H670.965ZM655.59 152.525C659.565 152.525 664.965 152.475 669.915 151.475L669.715 149.1C664.865 149.825 659.215 149.85 655.165 149.85L655.59 152.525ZM699.284 145.65H694.584V138.75H699.284V145.65ZM691.309 145.65H688.309V148.275H705.609V145.65H702.559V138.75H705.684V136.125H688.184V138.75H691.309V145.65ZM686.559 151.8V154.475H707.409V151.8H686.559ZM721.607 151.925V148.5H728.582V145.85H715.232V143.275H728.057V135.6H711.932V138.225H724.807V140.7H711.957V148.5H718.307V151.925H709.557V154.625H730.407V151.925H721.607ZM745.155 144C742.805 144.475 740.73 144.65 737.055 144.675V138.3H744.155V135.675H733.78V147.325H735.605C740.33 147.325 742.755 147.2 745.455 146.625L745.155 144ZM736.105 151.65H748.505V157.175H751.805V149.025H736.105V151.65ZM748.505 134.1V139.875H743.08V142.5H748.505V148.025H751.805V134.1H748.505ZM774.179 146H761.354V143.425H773.479V140.875H761.354V138.45H774.004V135.8H758.004V148.6H774.179V146ZM755.554 151.825V154.5H776.404V151.825H755.554ZM793.602 137.875H781.152V143.375H797.252V141.15H784.402V139.95H796.852V134.525H781.102V136.75H793.602V137.875ZM784.202 153.475H796.927V148H780.902V150.225H793.652V151.4H780.927V156.95H797.552V154.725H784.202V153.475ZM778.552 144.475V146.85H799.402V144.475H778.552ZM818.446 144.525H813.946V138.625H818.446V144.525ZM821.696 136.025H810.721V147.125H821.696V136.025ZM816.621 149.275H813.321V156.75H828.996V154.125H816.621V149.275ZM828.171 140.775V134.125H824.871V150.925H828.171V143.475H831.221V140.775H828.171ZM851.669 144.75H838.769V138.7H851.494V136.025H835.469V147.375H851.669V144.75ZM833.044 151.7V154.4H853.894V151.7H833.044ZM874.592 140.35H861.917V134.95H858.617V142.975H874.592V140.35ZM861.717 149.8H858.392V156.65H874.717V154.025H861.717V149.8ZM856.042 145.325V147.975H876.892V145.325H856.042ZM896.011 135.9H892.686V139.25C892.686 143.525 890.936 147.925 887.061 149.75L889.036 152.425C891.636 151.15 893.361 148.725 894.361 145.8C895.311 148.55 896.936 150.775 899.336 152L901.336 149.4C897.636 147.575 896.011 143.4 896.011 139.25V135.9ZM908.911 142.975H905.561V134.125H902.261V157.15H905.561V145.725H908.911V142.975ZM923.784 143.65C920.909 144.175 918.384 144.325 914.634 144.35V142.275H921.834V135.275H911.334V137.9H918.584V139.825H911.359V147H913.334C917.934 147 920.859 146.9 924.059 146.3L923.784 143.65ZM916.909 151.375H925.434V154.3H916.909V151.375ZM913.659 156.875H928.659V148.775H913.659V156.875ZM931.709 139.55H928.659V134.125H925.359V147.825H928.659V142.25H931.709V139.55Z" fill="black"/>
</svg>
